<?xml version="1.0" ?><!DOCTYPE svg  PUBLIC '-//W3C//DTD SVG 1.1//EN'  'http://www.w3.org/Graphics/SVG/1.1/DTD/svg11.dtd'><svg enable-background="new 0 0 48 48" height="48px" id="Layer_3" version="1.1" viewBox="0 0 48 48" width="48px" xml:space="preserve" xmlns="http://www.w3.org/2000/svg" xmlns:xlink="http://www.w3.org/1999/xlink"><g><path d="M0,24c0,12.576,9.674,22.886,21.986,23.909c0.004,0.004,0.009,0.008,0.014,0.011v-0.01v-5.416   c-2.502-2.182-4.539-5.077-5.916-8.432H22v-4h-7.183C14.374,28.131,14.13,26.101,14.13,24c0-1.387,0.106-2.744,0.304-4.062H22v-4   h-6.646C16.68,11.729,19.012,8.111,22,5.505V0.089V0.081c-0.005,0.003-0.009,0.007-0.014,0.01C9.675,1.114,0,11.424,0,24z    M4.941,30.062C4.333,28.149,4,26.114,4,24c0-1.392,0.144-2.75,0.415-4.062h6.154c-0.165,1.326-0.256,2.681-0.256,4.062   c0,2.085,0.204,4.111,0.571,6.062H4.941z M16.275,42.45c-4.022-1.686-7.36-4.656-9.54-8.388h5.182   C12.944,37.177,14.425,40.016,16.275,42.45z M11.331,15.938H5.706c2.062-4.672,5.852-8.41,10.569-10.388   C14.035,8.497,12.333,12.033,11.331,15.938z" fill="#241F20"/><path d="M24,0v48h24V0H24z M34,40h-4v-4h4V40z M34,30h-4v-4h4V30z M34,20h-4v-4h4V20z M34,10h-4V6h4V10z M42,40h-4   v-4h4V40z M42,30h-4v-4h4V30z M42,20h-4v-4h4V20z M42,10h-4V6h4V10z" fill="#241F20"/></g></svg>